PathFileType	4	(X/Y/Z)	Patient4_TMGait_0pt4_03_right_12.trc.trc
DataRate	CameraRate	NumFrames	NumMarkers	Units	OrigDataRate	OrigDataStartFrame	OrigNumFrames
72.538860103627	72.538860103627	4	33	mm	72.538860103627	106	       141
Frame#	Time	Sacral			L.Shoulder			Chest			R.Shoulder			Neck			R.ASIS			L.ASIS			R.Thigh.Superior			R.Thigh.Lateral			R.Thigh.Inferior			R.Patella			L.Thigh.Superior			L.Thigh.Lateral			L.Thigh.Inferior			L.Patella			L.Shank.Superior			L.Shank.Lateral			L.Shank.Inferior			R.Shank.Superior			R.Shank.Lateral			R.Shank.Inferior			R.Heel			R.Midfoot.Superior			R.Midfoot.Lateral			R.Toe			L.Heel			L.Midfoot.Lateral			L.Midfoot.Superior			L.Toe			L.Elbow			L.Wrist			R.Elbow			R.Wrist			
		X1	Y1	Z1	X2	Y2	Z2	X3	Y3	Z3	X4	Y4	Z4	X5	Y5	Z5	X6	Y6	Z6	X7	Y7	Z7	X8	Y8	Z8	X9	Y9	Z9	X10	Y10	Z10	X11	Y11	Z11	X12	Y12	Z12	X13	Y13	Z13	X14	Y14	Z14	X15	Y15	Z15	X16	Y16	Z16	X17	Y17	Z17	X18	Y18	Z18	X19	Y19	Z19	X20	Y20	Z20	X21	Y21	Z21	X22	Y22	Z22	X23	Y23	Z23	X24	Y24	Z24	X25	Y25	Z25	X26	Y26	Z26	X27	Y27	Z27	X28	Y28	Z28	X29	Y29	Z29	X30	Y30	Z30	X31	Y31	Z31	X32	Y32	Z32	X33	Y33	Z33	

106	16.177500000000	786.298239034393	1001.837183023583	399.702593328892	955.684228429415	1433.685888276296	203.606314207474	1052.354886153435	1377.230509018719	372.849082319186	955.588588003001	1450.622932396571	539.943959116334	927.685550226247	1499.667536536459	357.710654286502	1016.162296070223	954.315240845564	524.522689280905	1008.037282769633	969.032189416143	249.762041589552	1108.795492930847	791.653307017215	499.285605206730	1080.101687289740	672.811545711974	585.831046272658	1169.986508918144	634.952708695900	506.380522394417	1201.034307991512	531.419097479183	537.543559935989	1051.260581618547	751.333657765196	281.080066022806	959.229875778617	636.377227479662	220.094308743415	1039.571517882006	557.269782414517	284.307994964005	1036.082646356322	488.838923008420	295.071645517513	1008.654739568645	416.980974020600	288.235665587511	916.954898055174	302.750292389393	238.753246416504	966.756694065316	193.257819247570	314.465356854745	1141.273494815067	446.226399475691	550.785032674858	1033.059514688292	383.015398663708	614.960261691448	1046.475905416533	270.249257850709	573.774967621413	868.116603084995	163.087957502567	552.882142634504	1045.028903176093	142.940545715922	594.700723753285	938.389663624730	117.511123213679	626.405162353202	1131.519974832095	45.414157897565	618.943551911181	837.043178021691	38.148504753547	359.800128424123	912.420107166239	34.373181185176	279.909097041979	994.930253150083	96.454683150006	308.063878884565	1124.338343886222	46.100195148642	283.420158876781	1017.247327461588	1096.528870939600	64.607514075584	1249.774448234366	974.601581645192	75.587692827229	882.576861124755	1117.807980832007	674.298895813429	914.813957534992	860.691375179427	707.260245559749	
107	16.191285714286	785.424067553589	1002.272168646112	398.766841837444	956.109231508612	1433.379997281890	202.679060323128	1051.703404043660	1377.412042264134	372.670541425512	953.983435275407	1451.443233469853	538.901293126860	927.133047495477	1499.815535202356	356.430518454038	1014.563586550612	954.497309893535	524.957065258823	1007.859941785077	969.148903223947	250.034229661364	1106.280111380225	791.260796497254	500.238473647315	1076.942068174413	672.471627656952	586.761647814552	1166.610487032566	634.293658642085	507.434646782870	1198.211533851617	532.626262239558	538.532802023857	1048.683663412993	750.791635615680	281.460275839586	955.552319847747	636.623351230369	219.864013606386	1034.893210810271	556.794257670007	284.093592137277	1030.677905218150	488.500704750380	294.702472718831	1003.213254787017	416.916674592060	287.833334866525	911.147847369109	302.847651291165	238.665558194040	961.141142444352	193.270560685594	314.215353606428	1142.151678410780	446.397580259806	552.277672423587	1037.581263359210	378.230836980327	616.981469419338	1056.651871740922	266.005765727096	576.040266891768	884.068506781855	149.248547390655	555.518233763170	1061.895836838680	138.993347273156	597.567944859847	956.720839435301	108.523485665914	629.726562131263	1153.530266950174	46.796552214260	623.224912737518	831.479984531113	38.132939223515	359.775838415764	906.848879852932	34.343640373732	279.893265586878	989.350050708050	96.459591101084	307.994678964693	1118.766880143715	46.117452353637	283.416833724302	1019.400774233881	1096.367705099697	64.556568546053	1255.578557835789	982.238300957563	76.306828045289	874.903104838353	1121.122595929001	674.606709423968	903.147939851966	863.955052164272	709.955955526396	
108	16.205071428571	784.594674068147	1002.648334092939	398.066929852443	956.494135353125	1432.933765068540	201.932863357230	1051.134278167507	1377.478836310902	372.610275677899	952.602052551336	1452.177549127034	538.037870200635	926.656277614551	1499.863146515499	355.320943753687	1013.042732055239	954.533117486937	525.535916935127	1007.748308721128	969.248862372024	250.423872906708	1103.443574118892	790.293023714358	501.393491720204	1072.937680778585	671.567831665801	587.713527269827	1162.435029586627	632.922351023943	508.651979723746	1194.410709753827	533.249025569442	539.379278467845	1046.139869143836	750.211958218281	281.930593266710	951.921159054895	636.845191014280	219.767721653218	1030.235434317125	556.310928661323	284.038014400224	1025.303855086256	488.165378328326	294.506797722909	997.826160331764	416.841985244851	287.576169714715	905.422854555019	302.944739978812	238.655461554781	955.550468429971	193.263390814322	314.045537867017	1142.333055471227	446.220539610736	553.629307544114	1042.101061991727	373.097970272874	619.276379782639	1066.793144881955	261.796986704416	578.339968549427	900.702700613425	135.663393178141	558.717644933625	1079.006381494417	135.280259586364	600.346926592138	975.695402773621	99.866474089257	633.300775912312	1175.541500445163	48.625777151336	627.030447200347	825.930709780851	38.106738182398	359.760166161076	901.281515844800	34.311098382544	279.886521727810	983.764718373449	96.454262088371	307.952849875084	1113.196965151986	46.133162069807	283.417016459838	1021.340744801888	1095.911527484552	64.908537340580	1260.592810807449	988.992897720325	77.170359007040	867.716474772625	1124.321602676204	674.899161401542	892.629450522135	867.161199173844	712.245400732745	
109	16.218857142857	783.827944354298	1002.958070337273	397.607450898267	956.838616380636	1432.371267918581	201.380353724449	1050.647529350334	1377.440223071246	372.677734437802	951.439578203868	1452.814949918439	537.372618517773	926.254925629262	1499.817434043976	354.406871439657	1011.606373858522	954.439104329344	526.244154199808	1007.681623499104	969.316430689848	250.934430451121	1100.313690646077	788.786352843490	502.748385115164	1068.137346047830	670.168465795846	588.715691309710	1157.520418084584	630.907796762759	510.045981523000	1189.708281291378	533.324566462968	540.103151438419	1043.661091947944	749.597166961088	282.486783599609	948.361232807853	637.040770364752	219.809081191059	1025.629975102716	555.817902189377	284.137909287220	1020.001510453769	487.831934352841	294.481592512025	992.521688830860	416.754769871350	287.464335207245	899.799615394906	303.044399454749	238.718022020128	949.995433057732	193.235989113670	313.951538518994	1141.832409096644	445.771887720196	554.818265941067	1046.569385972080	367.773129692529	621.753138503364	1076.781035350647	257.791648122756	580.558017624731	917.837739796488	122.639461238296	562.272243677234	1096.174391625499	131.963901365287	602.864342892302	995.098207008771	91.734347296155	636.894079424649	1197.307666163136	50.982156360871	630.109318079619	820.391910765473	38.073671884062	359.751567473146	895.718226030264	34.276892231594	279.887528276054	978.179193320343	96.437938437897	307.935469666576	1107.630153985620	46.141933942006	283.420979574666	1023.060047620534	1095.184012264997	65.661742955759	1264.845146992277	994.770552730724	78.170199794084	861.089059306919	1127.336780846099	675.172465974520	883.258850302258	870.200887710597	714.161897530546	
